<svg xmlns="http://www.w3.org/2000/svg" xmlns:xlink="http://www.w3.org/1999/xlink" width="90" zoomAndPan="magnify" viewBox="0 0 67.5 67.499996" height="90" preserveAspectRatio="xMidYMid meet" version="1.0"><defs><clipPath id="d16722611c"><path d="M 7.105469 10.902344 L 60.355469 10.902344 L 60.355469 17 L 7.105469 17 Z M 7.105469 10.902344 " clip-rule="nonzero"/></clipPath><clipPath id="5453dbe215"><path d="M 7.105469 30 L 60.355469 30 L 60.355469 37 L 7.105469 37 Z M 7.105469 30 " clip-rule="nonzero"/></clipPath><clipPath id="a86d28b84e"><path d="M 7.105469 50 L 60.355469 50 L 60.355469 56.652344 L 7.105469 56.652344 Z M 7.105469 50 " clip-rule="nonzero"/></clipPath><clipPath id="3889c0fe02"><path d="M 7.105469 10.902344 L 34 10.902344 L 34 17 L 7.105469 17 Z M 7.105469 10.902344 " clip-rule="nonzero"/></clipPath><clipPath id="b665f60252"><path d="M 7.105469 30 L 34 30 L 34 37 L 7.105469 37 Z M 7.105469 30 " clip-rule="nonzero"/></clipPath><clipPath id="377d951a64"><path d="M 7.105469 50 L 34 50 L 34 56.652344 L 7.105469 56.652344 Z M 7.105469 50 " clip-rule="nonzero"/></clipPath></defs><g clip-path="url(#d16722611c)"><path fill="#ffffff" d="M 6.90625 13.816406 C 6.90625 12.179688 8.230469 10.851562 9.863281 10.851562 L 57.199219 10.851562 C 58.832031 10.851562 60.15625 12.179688 60.15625 13.816406 C 60.15625 15.453125 58.832031 16.78125 57.199219 16.78125 L 9.863281 16.78125 C 8.230469 16.78125 6.90625 15.453125 6.90625 13.816406 Z M 6.90625 13.816406 " fill-opacity="1" fill-rule="evenodd"/></g><g clip-path="url(#5453dbe215)"><path fill="#ffffff" d="M 6.90625 33.578125 C 6.90625 31.941406 8.230469 30.613281 9.863281 30.613281 L 57.199219 30.613281 C 58.832031 30.613281 60.15625 31.941406 60.15625 33.578125 C 60.15625 35.214844 58.832031 36.542969 57.199219 36.542969 L 9.863281 36.542969 C 8.230469 36.542969 6.90625 35.214844 6.90625 33.578125 Z M 6.90625 33.578125 " fill-opacity="1" fill-rule="evenodd"/></g><g clip-path="url(#a86d28b84e)"><path fill="#ffffff" d="M 6.90625 53.339844 C 6.90625 51.703125 8.230469 50.375 9.863281 50.375 L 57.199219 50.375 C 58.832031 50.375 60.15625 51.703125 60.15625 53.339844 C 60.15625 54.976562 58.832031 56.300781 57.199219 56.300781 L 9.863281 56.300781 C 8.230469 56.300781 6.90625 54.976562 6.90625 53.339844 Z M 6.90625 53.339844 " fill-opacity="1" fill-rule="evenodd"/></g><g clip-path="url(#3889c0fe02)"><path fill="#ffffff" d="M 33.53125 10.851562 L 33.53125 16.78125 L 9.863281 16.78125 C 8.230469 16.78125 6.90625 15.453125 6.90625 13.816406 C 6.90625 12.179688 8.230469 10.851562 9.863281 10.851562 Z M 33.53125 10.851562 " fill-opacity="1" fill-rule="evenodd"/></g><g clip-path="url(#b665f60252)"><path fill="#ffffff" d="M 33.53125 30.613281 L 33.53125 36.542969 L 9.863281 36.542969 C 8.230469 36.542969 6.90625 35.214844 6.90625 33.578125 C 6.90625 31.941406 8.230469 30.613281 9.863281 30.613281 Z M 33.53125 30.613281 " fill-opacity="1" fill-rule="evenodd"/></g><g clip-path="url(#377d951a64)"><path fill="#ffffff" d="M 33.53125 50.375 L 33.53125 56.300781 L 9.863281 56.300781 C 8.230469 56.300781 6.90625 54.976562 6.90625 53.339844 C 6.90625 51.703125 8.230469 50.375 9.863281 50.375 Z M 33.53125 50.375 " fill-opacity="1" fill-rule="evenodd"/></g></svg>