<svg xmlns="http://www.w3.org/2000/svg" xmlns:xlink="http://www.w3.org/1999/xlink" width="75" zoomAndPan="magnify" viewBox="0 0 56.25 56.249997" height="75" preserveAspectRatio="xMidYMid meet" version="1.0"><defs><clipPath id="384070acfa"><path d="M 5.664062 8.8125 L 50 8.8125 L 50 14 L 5.664062 14 Z M 5.664062 8.8125 " clip-rule="nonzero"/></clipPath><clipPath id="72cb6e50fe"><path d="M 5.664062 25 L 50 25 L 50 30 L 5.664062 30 Z M 5.664062 25 " clip-rule="nonzero"/></clipPath><clipPath id="5535f96d20"><path d="M 5.664062 41 L 50 41 L 50 46.558594 L 5.664062 46.558594 Z M 5.664062 41 " clip-rule="nonzero"/></clipPath><clipPath id="66fa1d5f6a"><path d="M 5.664062 8.8125 L 28 8.8125 L 28 14 L 5.664062 14 Z M 5.664062 8.8125 " clip-rule="nonzero"/></clipPath><clipPath id="57a5422b3d"><path d="M 5.664062 25 L 28 25 L 28 30 L 5.664062 30 Z M 5.664062 25 " clip-rule="nonzero"/></clipPath><clipPath id="e58aa586f7"><path d="M 5.664062 41 L 28 41 L 28 46.558594 L 5.664062 46.558594 Z M 5.664062 41 " clip-rule="nonzero"/></clipPath></defs><g clip-path="url(#384070acfa)"><path fill="#ffffff" d="M 5.496094 11.21875 C 5.496094 9.867188 6.601562 8.773438 7.964844 8.773438 L 47.4375 8.773438 C 48.800781 8.773438 49.90625 9.867188 49.90625 11.21875 C 49.90625 12.570312 48.800781 13.664062 47.4375 13.664062 L 7.964844 13.664062 C 6.601562 13.664062 5.496094 12.570312 5.496094 11.21875 Z M 5.496094 11.21875 " fill-opacity="1" fill-rule="evenodd"/></g><g clip-path="url(#72cb6e50fe)"><path fill="#ffffff" d="M 5.496094 27.519531 C 5.496094 26.171875 6.601562 25.074219 7.964844 25.074219 L 47.4375 25.074219 C 48.800781 25.074219 49.90625 26.171875 49.90625 27.519531 C 49.90625 28.871094 48.800781 29.964844 47.4375 29.964844 L 7.964844 29.964844 C 6.601562 29.964844 5.496094 28.871094 5.496094 27.519531 Z M 5.496094 27.519531 " fill-opacity="1" fill-rule="evenodd"/></g><g clip-path="url(#5535f96d20)"><path fill="#ffffff" d="M 5.496094 43.824219 C 5.496094 42.472656 6.601562 41.378906 7.964844 41.378906 L 47.4375 41.378906 C 48.800781 41.378906 49.90625 42.472656 49.90625 43.824219 C 49.90625 45.171875 48.800781 46.269531 47.4375 46.269531 L 7.964844 46.269531 C 6.601562 46.269531 5.496094 45.171875 5.496094 43.824219 Z M 5.496094 43.824219 " fill-opacity="1" fill-rule="evenodd"/></g><g clip-path="url(#66fa1d5f6a)"><path fill="#ffffff" d="M 27.703125 8.773438 L 27.703125 13.664062 L 7.964844 13.664062 C 6.601562 13.664062 5.496094 12.570312 5.496094 11.21875 C 5.496094 9.867188 6.601562 8.773438 7.964844 8.773438 Z M 27.703125 8.773438 " fill-opacity="1" fill-rule="evenodd"/></g><g clip-path="url(#57a5422b3d)"><path fill="#ffffff" d="M 27.703125 25.074219 L 27.703125 29.964844 L 7.964844 29.964844 C 6.601562 29.964844 5.496094 28.871094 5.496094 27.519531 C 5.496094 26.171875 6.601562 25.074219 7.964844 25.074219 Z M 27.703125 25.074219 " fill-opacity="1" fill-rule="evenodd"/></g><g clip-path="url(#e58aa586f7)"><path fill="#ffffff" d="M 27.703125 41.378906 L 27.703125 46.269531 L 7.964844 46.269531 C 6.601562 46.269531 5.496094 45.171875 5.496094 43.824219 C 5.496094 42.472656 6.601562 41.378906 7.964844 41.378906 Z M 27.703125 41.378906 " fill-opacity="1" fill-rule="evenodd"/></g></svg>