<svg xmlns="http://www.w3.org/2000/svg" xmlns:xlink="http://www.w3.org/1999/xlink" width="40" zoomAndPan="magnify" viewBox="0 0 30 30.000001" height="40" preserveAspectRatio="xMidYMid meet" version="1.0"><defs><clipPath id="7eaaeaf115"><path d="M 2.980469 4.210938 L 26.933594 4.210938 L 26.933594 7 L 2.980469 7 Z M 2.980469 4.210938 " clip-rule="nonzero"/></clipPath><clipPath id="12e9ef8d55"><path d="M 2.980469 12 L 26.933594 12 L 26.933594 16 L 2.980469 16 Z M 2.980469 12 " clip-rule="nonzero"/></clipPath><clipPath id="21e0528438"><path d="M 2.980469 21 L 26.933594 21 L 26.933594 24.53125 L 2.980469 24.53125 Z M 2.980469 21 " clip-rule="nonzero"/></clipPath><clipPath id="b1b4cecee4"><path d="M 2.980469 4.210938 L 15 4.210938 L 15 7 L 2.980469 7 Z M 2.980469 4.210938 " clip-rule="nonzero"/></clipPath><clipPath id="d04f15cf36"><path d="M 2.980469 12 L 15 12 L 15 16 L 2.980469 16 Z M 2.980469 12 " clip-rule="nonzero"/></clipPath><clipPath id="3f07c6d975"><path d="M 2.980469 21 L 15 21 L 15 24.53125 L 2.980469 24.53125 Z M 2.980469 21 " clip-rule="nonzero"/></clipPath></defs><g clip-path="url(#7eaaeaf115)"><path fill="#ffffff" d="M 2.894531 5.507812 C 2.894531 4.777344 3.488281 4.191406 4.222656 4.191406 L 25.515625 4.191406 C 26.25 4.191406 26.84375 4.777344 26.84375 5.507812 C 26.84375 6.234375 26.25 6.824219 25.515625 6.824219 L 4.222656 6.824219 C 3.488281 6.824219 2.894531 6.234375 2.894531 5.507812 Z M 2.894531 5.507812 " fill-opacity="1" fill-rule="evenodd"/></g><g clip-path="url(#12e9ef8d55)"><path fill="#ffffff" d="M 2.894531 14.285156 C 2.894531 13.558594 3.488281 12.96875 4.222656 12.96875 L 25.515625 12.96875 C 26.25 12.96875 26.84375 13.558594 26.84375 14.285156 C 26.84375 15.011719 26.25 15.601562 25.515625 15.601562 L 4.222656 15.601562 C 3.488281 15.601562 2.894531 15.011719 2.894531 14.285156 Z M 2.894531 14.285156 " fill-opacity="1" fill-rule="evenodd"/></g><g clip-path="url(#21e0528438)"><path fill="#ffffff" d="M 2.894531 23.0625 C 2.894531 22.335938 3.488281 21.746094 4.222656 21.746094 L 25.515625 21.746094 C 26.25 21.746094 26.84375 22.335938 26.84375 23.0625 C 26.84375 23.789062 26.25 24.378906 25.515625 24.378906 L 4.222656 24.378906 C 3.488281 24.378906 2.894531 23.789062 2.894531 23.0625 Z M 2.894531 23.0625 " fill-opacity="1" fill-rule="evenodd"/></g><g clip-path="url(#b1b4cecee4)"><path fill="#ffffff" d="M 14.867188 4.191406 L 14.867188 6.824219 L 4.222656 6.824219 C 3.488281 6.824219 2.894531 6.234375 2.894531 5.507812 C 2.894531 4.777344 3.488281 4.191406 4.222656 4.191406 Z M 14.867188 4.191406 " fill-opacity="1" fill-rule="evenodd"/></g><g clip-path="url(#d04f15cf36)"><path fill="#ffffff" d="M 14.867188 12.96875 L 14.867188 15.601562 L 4.222656 15.601562 C 3.488281 15.601562 2.894531 15.011719 2.894531 14.285156 C 2.894531 13.558594 3.488281 12.96875 4.222656 12.96875 Z M 14.867188 12.96875 " fill-opacity="1" fill-rule="evenodd"/></g><g clip-path="url(#3f07c6d975)"><path fill="#ffffff" d="M 14.867188 21.746094 L 14.867188 24.378906 L 4.222656 24.378906 C 3.488281 24.378906 2.894531 23.789062 2.894531 23.0625 C 2.894531 22.335938 3.488281 21.746094 4.222656 21.746094 Z M 14.867188 21.746094 " fill-opacity="1" fill-rule="evenodd"/></g></svg>