<svg xmlns="http://www.w3.org/2000/svg" xmlns:xlink="http://www.w3.org/1999/xlink" width="60" zoomAndPan="magnify" viewBox="0 0 45 44.999999" height="60" preserveAspectRatio="xMidYMid meet" version="1.0"><defs><clipPath id="efe68fa7dd"><path d="M 7.230469 7 L 37.980469 7 L 37.980469 38 L 7.230469 38 Z M 7.230469 7 " clip-rule="nonzero"/></clipPath></defs><g clip-path="url(#efe68fa7dd)"><path fill="#ffffff" d="M 37.894531 10.519531 C 37.867188 9.644531 37.535156 8.90625 36.898438 8.300781 C 36.589844 8.007812 36.238281 7.785156 35.839844 7.625 C 35.445312 7.46875 35.035156 7.390625 34.609375 7.390625 C 34.179688 7.390625 33.769531 7.46875 33.375 7.625 C 32.976562 7.785156 32.625 8.007812 32.316406 8.300781 L 22.820312 17.699219 L 13.316406 8.300781 C 13.007812 8.007812 12.65625 7.785156 12.261719 7.628906 C 11.867188 7.472656 11.457031 7.394531 11.03125 7.394531 C 10.605469 7.394531 10.195312 7.472656 9.800781 7.628906 C 9.40625 7.785156 9.054688 8.007812 8.746094 8.300781 C 8.445312 8.601562 8.210938 8.949219 8.046875 9.339844 C 7.882812 9.734375 7.800781 10.140625 7.800781 10.566406 C 7.800781 10.992188 7.882812 11.398438 8.046875 11.792969 C 8.210938 12.183594 8.445312 12.53125 8.746094 12.832031 L 18.242188 22.234375 L 8.746094 31.675781 C 8.554688 31.8125 8.382812 31.964844 8.226562 32.140625 C 8.070312 32.3125 7.933594 32.5 7.820312 32.703125 C 7.707031 32.90625 7.613281 33.121094 7.546875 33.34375 C 7.476562 33.566406 7.433594 33.792969 7.414062 34.023438 C 7.398438 34.253906 7.402344 34.484375 7.4375 34.714844 C 7.46875 34.945312 7.523438 35.171875 7.605469 35.390625 C 7.6875 35.605469 7.792969 35.8125 7.917969 36.011719 C 8.042969 36.207031 8.191406 36.386719 8.355469 36.550781 C 8.523438 36.714844 8.703125 36.859375 8.902344 36.984375 C 9.101562 37.109375 9.308594 37.214844 9.53125 37.292969 C 9.75 37.375 9.976562 37.429688 10.210938 37.460938 C 10.441406 37.492188 10.675781 37.5 10.910156 37.480469 C 11.144531 37.464844 11.375 37.421875 11.597656 37.351562 C 11.824219 37.285156 12.039062 37.195312 12.242188 37.082031 C 12.445312 36.96875 12.636719 36.832031 12.8125 36.679688 C 12.988281 36.523438 13.144531 36.351562 13.28125 36.164062 L 22.820312 26.777344 L 32.328125 36.164062 C 32.640625 36.414062 32.988281 36.601562 33.367188 36.726562 C 33.75 36.847656 34.140625 36.902344 34.542969 36.878906 C 34.945312 36.859375 35.328125 36.769531 35.695312 36.605469 C 36.0625 36.445312 36.390625 36.222656 36.671875 35.941406 C 36.957031 35.660156 37.179688 35.339844 37.34375 34.976562 C 37.507812 34.613281 37.597656 34.230469 37.621094 33.835938 C 37.640625 33.4375 37.589844 33.050781 37.464844 32.671875 C 37.339844 32.292969 37.152344 31.949219 36.898438 31.640625 L 27.414062 22.234375 L 36.898438 12.789062 C 37.550781 12.171875 37.882812 11.414062 37.894531 10.519531 Z M 37.894531 10.519531 " fill-opacity="1" fill-rule="nonzero"/></g></svg>